<mxfile host="app.diagrams.net" agent="Mozilla/5.0 (Windows NT 10.0; Win64; x64) AppleWebKit/537.36 (KHTML, like Gecko) Chrome/129.0.0.0 Safari/537.36" version="24.7.17">
  <diagram name="Page-1" id="ZgP940nSTO3NM95pW7ch">
    <mxGraphModel dx="683" dy="371" grid="1" gridSize="10" guides="1" tooltips="1" connect="1" arrows="1" fold="1" page="1" pageScale="1" pageWidth="850" pageHeight="1100" math="0" shadow="0">
      <root>
        <mxCell id="0" />
        <mxCell id="1" parent="0" />
        <mxCell id="yaIiBKpl6AElfZfwTaEi-4" style="edgeStyle=orthogonalEdgeStyle;rounded=0;orthogonalLoop=1;jettySize=auto;html=1;" edge="1" parent="1" source="yaIiBKpl6AElfZfwTaEi-1" target="yaIiBKpl6AElfZfwTaEi-3">
          <mxGeometry relative="1" as="geometry" />
        </mxCell>
        <mxCell id="yaIiBKpl6AElfZfwTaEi-6" value="CVT settings,&lt;div&gt;driving conditions&lt;/div&gt;&lt;div&gt;and weight&amp;nbsp;&lt;/div&gt;" style="edgeLabel;html=1;align=center;verticalAlign=middle;resizable=0;points=[];" vertex="1" connectable="0" parent="yaIiBKpl6AElfZfwTaEi-4">
          <mxGeometry x="-0.0105" relative="1" as="geometry">
            <mxPoint x="-6" y="-22" as="offset" />
          </mxGeometry>
        </mxCell>
        <mxCell id="yaIiBKpl6AElfZfwTaEi-1" value="User" style="ellipse;whiteSpace=wrap;html=1;aspect=fixed;" vertex="1" parent="1">
          <mxGeometry x="130" y="260" width="80" height="80" as="geometry" />
        </mxCell>
        <mxCell id="yaIiBKpl6AElfZfwTaEi-2" value="User" style="ellipse;whiteSpace=wrap;html=1;aspect=fixed;" vertex="1" parent="1">
          <mxGeometry x="640" y="260" width="80" height="80" as="geometry" />
        </mxCell>
        <mxCell id="yaIiBKpl6AElfZfwTaEi-5" style="edgeStyle=orthogonalEdgeStyle;rounded=0;orthogonalLoop=1;jettySize=auto;html=1;" edge="1" parent="1" source="yaIiBKpl6AElfZfwTaEi-3" target="yaIiBKpl6AElfZfwTaEi-2">
          <mxGeometry relative="1" as="geometry" />
        </mxCell>
        <mxCell id="yaIiBKpl6AElfZfwTaEi-7" value="CVT performance&amp;nbsp;&lt;div&gt;and vehicle dynamics&lt;/div&gt;" style="edgeLabel;html=1;align=center;verticalAlign=middle;resizable=0;points=[];" vertex="1" connectable="0" parent="yaIiBKpl6AElfZfwTaEi-5">
          <mxGeometry x="0.0667" y="1" relative="1" as="geometry">
            <mxPoint x="-4" y="-19" as="offset" />
          </mxGeometry>
        </mxCell>
        <mxCell id="yaIiBKpl6AElfZfwTaEi-3" value="CVT Simulator" style="rounded=0;whiteSpace=wrap;html=1;" vertex="1" parent="1">
          <mxGeometry x="365" y="270" width="120" height="60" as="geometry" />
        </mxCell>
      </root>
    </mxGraphModel>
  </diagram>
</mxfile>
